<?xml version="1.0" encoding="UTF-8" standalone="no"?>
<svg
   xmlns:dc="http://purl.org/dc/elements/1.1/"
   xmlns:cc="http://creativecommons.org/ns#"
   xmlns:rdf="http://www.w3.org/1999/02/22-rdf-syntax-ns#"
   xmlns:svg="http://www.w3.org/2000/svg"
   xmlns="http://www.w3.org/2000/svg"
   xmlns:sodipodi="http://sodipodi.sourceforge.net/DTD/sodipodi-0.dtd"
   xmlns:inkscape="http://www.inkscape.org/namespaces/inkscape"
   width="1080"
   height="680"
   viewBox="0 0 1080 680"
   version="1.1"
   id="svg8575"
   sodipodi:docname="church.svg"
   inkscape:version="0.92.4 (33fec40, 2019-01-16)"
   inkscape:export-filename="/home/edward/Pictures/PrayerMate assets/Humaaans/church.png"
   inkscape:export-xdpi="100.24696"
   inkscape:export-ydpi="100.24696">
  <metadata
     id="metadata8581">
    <rdf:RDF>
      <cc:Work
         rdf:about="">
        <dc:format>image/svg+xml</dc:format>
        <dc:type
           rdf:resource="http://purl.org/dc/dcmitype/StillImage" />
        <dc:title>Scene/Plants</dc:title>
      </cc:Work>
    </rdf:RDF>
  </metadata>
  <defs
     id="defs8579" />
  <sodipodi:namedview
     pagecolor="#ffffff"
     bordercolor="#666666"
     borderopacity="1"
     objecttolerance="10"
     gridtolerance="10"
     guidetolerance="10"
     inkscape:pageopacity="0"
     inkscape:pageshadow="2"
     inkscape:window-width="1920"
     inkscape:window-height="1016"
     id="namedview8577"
     showgrid="true"
     showguides="true"
     inkscape:guide-bbox="true"
     inkscape:zoom="1.2073529"
     inkscape:cx="546.31645"
     inkscape:cy="306.86967"
     inkscape:window-x="0"
     inkscape:window-y="27"
     inkscape:window-maximized="1"
     inkscape:current-layer="layer3">
    <inkscape:grid
       type="xygrid"
       id="grid19656" />
    <sodipodi:guide
       position="540,467.9659"
       orientation="1,0"
       id="guide23231"
       inkscape:locked="false"
       inkscape:label=""
       inkscape:color="rgb(0,0,255)" />
  </sodipodi:namedview>
  <!-- Generator: Sketch 52.4 (67378) - http://www.bohemiancoding.com/sketch -->
  <title
     id="title8534">Scene/Plants</title>
  <desc
     id="desc8536">Created with Sketch.</desc>
  <g
     inkscape:groupmode="layer"
     id="layer2"
     inkscape:label="Background">
    <g
       id="Scene/Plants"
       transform="translate(158,50)"
       style="fill:none;fill-rule:evenodd;stroke:none;stroke-width:1">
      <g
         id="Background-Shape-2"
         transform="translate(55,337)"
         style="opacity:0.50451074;fill:#f2f2f2">
        <path
           d="M 630.15996,153.79549 C 639.34963,222.53553 416.48454,267.37231 224.65938,236.0818 32.834231,204.79129 -55.166053,82.598339 36.369711,17.489129 127.90548,-47.620081 620.97029,85.055443 630.15996,153.79549 Z"
           id="Background-Shape"
           inkscape:connector-curvature="0" />
      </g>
      <path
         d="m 582.66329,177.55341 c 5.03655,-2.17693 11.43276,0.98916 8.36557,7.28111 -3.28538,6.73767 -14.10159,6.25618 -20.20043,5.7996 0.61282,0 2.91196,-6.21596 3.63574,-7.13552 2.13457,-2.71269 5.10263,-4.60417 8.19912,-5.94519 z m -63.03516,120.58303 c -1.294,0.994 -0.106,0.094 0,0 z m 66.13064,-89.16738 c 2.75762,2.34653 2.69144,6.23087 0.20727,8.73224 -2.95802,2.97783 -8.05434,2.59667 -11.84708,2.09263 -1.71563,-0.22819 -10.87627,-1.44691 -8.61686,-2.83802 -0.17106,0.0545 -0.52942,0.18995 -0.91525,0.37928 -0.24036,0.72659 -0.49071,1.45004 -0.74981,2.16974 0.0525,0.0345 0.0968,0.0708 0.15296,0.10532 -0.0612,-0.0307 -0.10364,-0.0627 -0.15733,-0.0934 -2.59529,7.19318 -6.10896,13.98764 -10.57347,20.28245 1.57454,-0.5266 3.19652,-0.90275 4.82786,-1.02249 4.83099,-0.35546 14.73144,3.90315 9.02829,10.01177 -5.46842,5.85598 -13.13756,-1.13596 -18.93186,-2.34841 -6.08088,7.61133 -12.72551,14.86281 -19.6567,21.84535 0.39457,0.14669 0.73295,0.42692 0.91338,0.84507 2.69643,-1.19489 5.53334,-2.95776 7.99129,-3.34645 3.54675,-0.55983 10.76326,-0.63381 13.24993,2.64494 3.05854,4.03166 -0.60122,6.98442 -4.4926,7.52293 -5.6426,0.78113 -12.81229,-2.33148 -18.09091,-4.45734 -0.62057,0.0765 -1.28235,-0.13854 -1.65756,-0.65136 -0.11675,-0.0451 -0.2335,-0.0896 -0.34713,-0.1329 -7.01235,6.94241 -14.26569,13.63093 -21.46909,20.1671 0.073,0 0.14609,-6.2e-4 0.22226,-6.2e-4 1.84611,-1.07704 3.81084,-1.93716 5.9123,-2.33149 4.86158,-0.91842 10.50979,-0.62816 14.22324,3.0493 3.6991,3.66179 4.75669,9.78232 0.53879,13.45539 -8.44267,7.35242 -19.35265,-10.99226 -23.36702,-11.94454 -7.3164,6.56878 -15.00802,12.6611 -22.80826,18.61676 0.86156,-0.21378 1.74122,-0.35797 2.64461,-0.39621 7.35948,-0.31722 24.07688,9.56102 14.62718,17.92276 -8.23477,7.28659 -16.52261,-8.00315 -22.56227,-13.51495 -7.34699,5.54691 -14.7302,11.05119 -21.92672,16.79495 3.80272,-0.79931 7.43501,-0.75606 11.39195,0.66954 4.09429,1.477 10.64277,4.97015 7.71846,10.44935 -2.97426,5.57199 -10.89937,2.55028 -15.00302,0.51658 -2.23818,-1.10901 -6.65462,-4.68804 -10.61218,-6.30547 -11.51619,9.78483 -21.61893,20.69747 -29.51907,33.7623 -4.93212,8.15736 -8.81101,16.9454 -11.6935,26.03561 -1.83987,5.80207 -5.37539,15.52358 -5.17248,23.21139 -2.07649,-15.47593 4.09491,-33.60871 10.42176,-47.01269 5.81741,-12.3257 14.11524,-22.9788 23.67731,-32.45833 -1.91104,-6.94241 -20.49078,-17.78484 -8.74297,-23.52609 6.23758,-3.03425 12.15488,2.85307 13.17127,8.81312 0.69799,4.09561 -0.95521,9.10902 -2.63275,12.96076 3.00297,-2.88505 6.11333,-5.66665 9.3086,-8.34607 4.41581,-3.70316 8.92651,-7.28721 13.47593,-10.82111 -6.81882,-7.11356 -12.59689,-26.73087 -2.81568,-29.37706 14.443,-3.89437 6.22883,22.02088 4.9802,26.89324 -0.2822,0.002 -0.49696,-0.0947 -0.64867,-0.28525 0.0562,0.45514 0.12361,0.94225 0.21039,1.43437 8.70551,-6.72612 17.52714,-13.30493 26.08656,-20.21036 -0.70798,-0.58302 -1.76994,-2.72455 -2.63213,-3.87995 -1.946,-2.60481 -3.79648,-5.31621 -5.09569,-8.31221 -2.05214,-4.73444 -3.8789,-12.21035 2.34432,-14.60578 6.76824,-2.61046 9.47467,5.87855 9.26053,10.84682 -0.14859,3.4361 -1.25489,6.64964 -1.91854,9.99045 -0.20727,1.04193 0.13111,5.8052 -1.19245,3.69439 0.0281,0.75417 0.009,1.29833 -0.0443,1.682 1.53707,-1.2463 3.06353,-2.50764 4.58125,-3.77902 -0.0581,-0.17365 -0.098,-0.36173 -0.098,-0.57738 0,-1.48453 1.5196,-1.97665 2.54161,-1.48829 2.00469,-1.7146 3.99189,-3.45303 5.94726,-5.22969 4.14423,-3.76398 8.35152,-7.63829 12.53571,-11.60099 -0.8216,-0.78427 -0.42578,-1.78983 -1.18933,-2.61673 -0.76229,-0.82501 -2.32184,-1.34096 -3.22835,-2.1177 -2.28002,-1.95471 -4.11052,-4.72441 -5.39787,-7.42326 -2.12518,-4.45922 -4.68864,-13.71431 2.29188,-15.42076 7.19528,-1.76225 10.33186,7.18189 10.50043,12.67991 0.0331,1.06512 -1.26175,10.57912 -2.05152,14.0171 7.74406,-7.36621 15.38261,-15.02957 22.35001,-22.86846 -1.98159,-0.12225 -7.38944,-4.47866 -8.46764,-5.64659 -2.63088,-2.84869 -6.72517,-9.05322 -1.69878,-11.95958 4.46888,-2.57724 9.58331,1.76287 11.22464,5.80645 0.26971,0.66578 1.02389,6.77064 0.9652,9.48892 2.8881,-3.32764 5.65259,-6.68224 8.23789,-10.05753 1.72375,-2.24372 3.34573,-4.55451 4.87407,-6.9211 -0.32715,-0.20876 -0.62682,-0.55858 -0.90464,-0.98864 -7.14409,-1.60113 -15.74471,-13.32938 -7.07292,-16.79871 4.12863,-1.6494 8.29908,2.4205 10.10898,5.66853 0.37085,0.66453 0.85657,3.93324 1.25613,6.51235 4.45265,-7.87212 7.98005,-16.26834 10.78325,-24.91971 -0.61933,-0.1887 -1.12565,-0.69588 -1.1525,-1.52402 -3.39505,-2.17852 -6.0715,-3.98465 -8.31343,-7.94924 -1.39286,-2.4625 -3.84082,-8.05016 0.688,-9.13911 5.89357,-1.41682 9.07448,7.63829 9.32046,12.02917 0.0287,0.50968 -0.0506,1.98355 -0.14047,3.33329 0.2029,-0.0169 0.40643,-0.003 0.60434,0.0426 1.61761,-5.36323 2.96989,-10.81046 4.1049,-16.27837 -3.11411,-1.18549 -2.79008,-17.84942 -0.55689,-20.10755 4.99205,-5.05667 7.91637,2.7791 7.4525,6.81515 -0.54753,4.75888 -2.93868,8.98865 -5.7169,12.70811 -0.2978,0.3937 -0.21788,0.37803 -0.25971,-0.19434 -0.0543,0.27898 -0.1592,0.48147 -0.30654,0.62441 10e-4,2.52018 0.12548,5.10681 -0.1155,7.3242 -0.6905,6.34998 -1.76807,12.71689 -3.17467,18.94713 -0.34212,1.51525 -0.72171,3.01607 -1.13688,4.50185 2.6596,-2.03558 6.19325,-3.78278 7.568,-4.31503 3.56798,-1.37983 9.0289,-2.78536 12.35278,0.0433 z M 398.82843,420.86815 c 0.0453,2.22934 0.3395,4.28382 1,6 -0.46115,-1.9387 -0.78769,-3.94553 -1,-6 z"
         id="Leaf-Bottom"
         transform="matrix(-0.99862953,-0.05233596,-0.05233596,0.99862953,1005.3579,26.326223)"
         inkscape:connector-curvature="0"
         style="fill:#f2f2f2" />
      <path
         d="m 236.70239,42.658046 c 3.59753,-1.554947 8.16625,0.706545 5.9754,5.200792 -2.3467,4.812626 -10.07256,4.468704 -14.42887,4.142572 0.43772,0 2.07997,-4.439968 2.59695,-5.096795 1.52469,-1.93764 3.64474,-3.288696 5.85652,-4.246569 z m -45.07368,87.568204 c -1.294,0.994 -0.106,0.094 0,0 z m 47.95135,-64.502014 c 2.0135,1.696721 1.96518,4.505398 0.15135,6.314085 -2.15983,2.153199 -5.88095,1.877589 -8.65026,1.513132 -1.25268,-0.165003 -7.9414,-1.046228 -6.29167,-2.052112 -0.1249,0.03944 -0.38656,0.137352 -0.66828,0.27425 -0.1755,0.52538 -0.3583,1.048494 -0.54748,1.568888 0.0383,0.02493 0.0707,0.05122 0.11169,0.07616 -0.0447,-0.02221 -0.0757,-0.04533 -0.11488,-0.06754 -1.89497,5.201221 -4.46051,10.11414 -7.72031,14.665775 1.14966,-0.380776 2.33396,-0.652759 3.52511,-0.73934 3.52738,-0.257024 10.75628,2.822277 6.59208,7.23928 -3.99282,4.234322 -9.5925,-0.821388 -13.82327,-1.69808 -4.44,5.503575 -9.29163,10.746956 -14.3525,15.795866 0.28809,0.10607 0.53516,0.3087 0.66691,0.61106 1.96882,-0.864 4.04021,-2.1387 5.8349,-2.41975 2.5897,-0.4048 7.8589,-0.45829 9.67456,1.9125 2.23322,2.9152 -0.43899,5.05027 -3.28032,5.43966 -4.11999,0.56482 -9.355,-1.68584 -13.20923,-3.223 -0.45311,0.0553 -0.93632,-0.10018 -1.21028,-0.47099 -0.0853,-0.0326 -0.17049,-0.0648 -0.25346,-0.0961 -5.12013,5.01989 -10.41622,9.8562 -15.67584,14.58236 0.0533,0 0.10667,-4.5e-4 0.16228,-4.5e-4 1.34795,-0.77878 2.78252,-1.40071 4.31692,-1.68584 3.54972,-0.66409 7.67382,-0.45421 10.38523,2.20487 2.70092,2.64776 3.47313,7.07337 0.3934,9.72929 -6.16449,5.31636 -14.13051,-7.94825 -17.06164,-8.63682 -5.34213,4.74973 -10.95823,9.15494 -16.65365,13.46134 0.62908,-0.15458 1.27137,-0.25884 1.93099,-0.28649 5.37359,-0.22937 17.57994,6.91336 10.68016,12.95954 -6.01269,5.26876 -12.06413,-5.78689 -16.47404,-9.77235 -5.36447,4.01084 -10.75538,7.99086 -16.00999,12.14404 2.7766,-0.57796 5.42875,-0.54669 8.31794,0.48413 2.98948,1.06799 7.77091,3.5938 5.6357,7.55569 -2.17168,4.02897 -7.95827,1.84404 -10.95459,0.37352 -1.63423,-0.8019 -4.85893,-3.38982 -7.74857,-4.55934 -8.40865,7.07518 -15.78525,14.96586 -21.55361,24.41274 -3.60123,5.8984 -6.43344,12.25283 -8.53811,18.82575 -1.3434,4.19534 -3.92489,11.22474 -3.77674,16.78362 -1.51616,-11.19029 2.98994,-24.30168 7.60955,-33.99379 4.24763,-8.91243 10.30636,-16.61544 17.28819,-23.46987 -1.39536,-5.0199 -14.96153,-12.85981 -6.38375,-17.01117 4.55442,-2.194 8.87498,2.06299 9.61711,6.37256 0.50964,2.96144 -0.69745,6.58652 -1.92233,9.37162 2.19265,-2.08611 4.46371,-4.09742 6.79676,-6.03484 3.22424,-2.67768 6.51777,-5.26922 9.83957,-7.8245 -4.97882,-5.14365 -9.19773,-19.32847 -2.05589,-21.24187 10.54568,-2.81593 4.54803,15.92279 3.63633,19.44587 -0.20605,0.001 -0.36286,-0.0685 -0.47363,-0.20625 0.041,0.3291 0.0903,0.68132 0.15362,1.03716 6.3564,-4.86351 12.7976,-9.62049 19.04733,-14.61364 -0.51694,-0.42158 -1.29234,-1.97007 -1.92187,-2.80551 -1.42089,-1.88348 -2.77204,-3.84402 -3.72067,-6.01037 -1.49839,-3.42336 -2.83221,-8.82902 1.71173,-10.5611 4.94189,-1.88756 6.91801,4.25064 6.76165,7.84309 -0.10849,2.48456 -0.91626,4.8082 -1.40083,7.22386 -0.15134,0.7534 0.0957,4.19761 -0.87068,2.67133 0.0205,0.54533 0.007,0.93879 -0.0324,1.21622 1.1223,-0.90117 2.23686,-1.81322 3.34504,-2.73252 -0.0424,-0.12557 -0.0716,-0.26156 -0.0716,-0.4175 0,-1.07342 1.10954,-1.42927 1.85577,-1.07614 1.46375,-1.23979 2.91472,-2.49681 4.34245,-3.78147 3.02595,-2.72165 6.09794,-5.52307 9.15306,-8.38841 -0.5999,-0.56709 -0.31089,-1.29419 -0.8684,-1.8921 -0.55659,-0.59655 -1.69531,-0.96962 -2.35721,-1.53126 -1.66477,-1.41341 -3.00133,-3.41611 -3.9413,-5.36759 -1.55172,-3.22435 -3.42345,-9.916498 1.67343,-11.150394 5.2537,-1.274241 7.5439,5.193061 7.66698,9.168544 0.0242,0.77017 -0.92127,7.64953 -1.49793,10.13545 5.65439,-5.32633 11.23175,-10.86753 16.31906,-16.535661 -1.44688,-0.0884 -5.39547,-3.238411 -6.18273,-4.082918 -1.92096,-2.059818 -4.91044,-6.546177 -1.24037,-8.647698 3.26299,-1.863537 6.99733,1.274693 8.19577,4.19851 0.19692,0.48141 0.74759,4.895694 0.70474,6.861224 2.10878,-2.406143 4.12729,-4.831778 6.01497,-7.272371 1.25861,-1.622379 2.44292,-3.293261 3.55884,-5.004487 -0.23886,-0.150951 -0.45767,-0.403895 -0.66053,-0.714862 -5.21631,-1.157741 -11.49614,-9.63817 -5.16435,-12.14676 3.01455,-1.192645 6.05965,1.750211 7.38116,4.098784 0.27078,0.480503 0.62543,2.844035 0.91718,4.708932 3.25113,-5.692151 5.8267,-11.763264 7.87348,-18.018872 -0.45221,-0.136445 -0.8219,-0.503169 -0.84151,-1.101985 -2.47892,-1.575235 -4.43316,-2.881206 -6.07013,-5.747907 -1.017,-1.780581 -2.8044,-5.820889 0.50235,-6.608279 4.30325,-1.024469 6.62582,5.523067 6.80542,8.698015 0.021,0.368537 -0.0369,1.434257 -0.10257,2.410223 0.14816,-0.01224 0.29676,-0.0023 0.44127,0.03082 1.18111,-3.878024 2.16849,-7.81679 2.99723,-11.770516 -2.27379,-0.8572 -2.03721,-12.906499 -0.40662,-14.539303 3.64499,-3.656358 5.7802,2.009501 5.44151,4.927878 -0.39979,3.441038 -2.1457,6.499486 -4.17424,9.188945 -0.21744,0.284675 -0.1591,0.273343 -0.18964,-0.140525 -0.0397,0.201721 -0.11624,0.348138 -0.22382,0.451492 9.1e-4,1.822286 0.0916,3.692622 -0.0843,5.295962 -0.50418,4.591526 -1.29098,9.195291 -2.31801,13.700235 -0.24981,1.095638 -0.52697,2.180851 -0.83011,3.255183 1.94193,-1.471881 4.52206,-2.735242 5.52584,-3.120098 2.6052,-0.997724 6.59254,-2.014034 9.01949,0.03128 z M 102.99701,218.48457 c 0.0453,1.48623 0.3395,2.85588 1,4 -0.46115,-1.29246 -0.78769,-2.63035 -1,-4 z"
         id="Leaf-Top"
         transform="rotate(-3,173.12296,126.71407)"
         inkscape:connector-curvature="0"
         style="opacity:0.2;fill:#c1dee2" />
      <g
         id="Plant-Right"
         transform="translate(482,208)"
         style="opacity:0.7">
        <path
           d="m 79.904753,113.04038 c -13.651708,0.72264 -29.610417,10.41287 -29.507811,25.32393 0.07485,10.83417 1.524567,21.49265 1.021537,32.37136 -0.40276,8.6944 -2.293301,17.19873 -5.230065,25.38858 -2.823875,7.8754 -9.645284,15.0436 -10.752225,23.25621 -0.705633,5.23293 0.743947,12.33748 2.981231,17.14844 2.720706,5.84932 1.563255,5.48607 -2.05185,11.01402 -7.083865,10.83311 -13.331425,21.83524 -17.257364,34.29701 -5.655191,17.94943 -8.43676,38.52803 -3.693395,57.0268 0.603062,2.34913 1.920561,10.86785 5.26911,11.12103 3.739938,0.28345 1.509347,-4.43334 1.14717,-5.99466 -2.309406,-9.96235 -4.34613,-18.66859 -3.917511,-29.07815 1.654316,-40.16354 27.289922,-69.20548 42.237382,-104.71663 0.833719,-1.83789 2.544617,-6.18546 3.749612,-9.0617 1.902403,-4.54094 3.409923,-12.95953 6.261565,-16.47806 5.370452,-6.62847 1.120872,6.00901 0.193511,8.43377 -1.172372,3.06709 -2.473526,6.3326 -3.720342,9.04321 -5.688852,12.55504 -12.069278,26.2779 -17.947119,39.22137 31.704221,3.80041 49.597806,-35.71524 55.334671,-61.06092 4.72679,-20.88206 7.96307,-68.8832 -24.118107,-67.25561"
           id="Leaf-Me-Alone!"
           transform="matrix(-0.9945219,0.10452846,0.10452846,0.9945219,95.472974,-5.0035266)"
           inkscape:connector-curvature="0"
           style="fill:#69a1ac" />
        <path
           d="m 210.80537,78.1212 c -22.82274,1.810806 -37.47443,16.870553 -44.29484,37.93433 -3.67596,11.35143 -4.0973,23.01265 -6.14006,34.67808 -3.07297,17.55076 -9.68482,30.85106 -22.6066,43.35497 -4.00226,3.87248 -6.95161,7.84851 -9.04819,12.10234 -4.16205,4.24711 -7.78503,9.05319 -10.44676,14.92927 -3.40011,7.50419 -4.3622,16.50771 -0.43647,23.98918 1.05544,2.01117 3.68858,6.04865 6.41758,7.88303 -10.21716,21.75998 -15.83496,45.59174 -15.2017,69.3932 0.38265,14.36775 1.08403,28.74139 1.90232,43.09147 0.22034,3.85312 1.47509,10.21577 3.35974,3.75378 1.72487,-5.91059 -0.43815,-15.18939 -0.63831,-21.36432 -0.97386,-30.08077 -1.80644,-57.43144 10.57627,-85.53556 1.29849,-2.94561 2.67518,-5.86765 4.10907,-8.76612 0.0841,-0.0488 0.16231,-0.10775 0.24136,-0.165 0.0547,0.0421 0.10428,0.0876 0.15895,0.1288 0.0917,-0.16331 0.21697,-0.35778 0.36331,-0.57498 0.41124,-0.42429 0.77034,-0.96054 1.11178,-1.55909 1.09833,-1.52206 2.34131,-3.31013 2.34804,-4.2892 0,-0.008 -0.004,-0.0194 -0.004,-0.0269 7.6656,-12.51316 16.44552,-24.33686 25.41382,-35.92905 -0.0673,0.0842 9.7277,-13.25231 8.21309,-5.87692 -0.72998,3.55427 -7.93473,10.32269 -10.84455,14.08742 -6.43692,8.37551 -13.99572,18.98779 -20.27706,29.24987 -0.84519,0.48574 -2.0394,2.87069 -2.90309,4.64698 -0.47684,0.89993 -0.92172,1.80744 -1.35904,2.59793 22.25675,7.35351 39.57017,-7.45874 51.37597,-24.68708 0.0143,-0.0202 0.0269,-0.0412 0.0404,-0.0614 3.5927,-4.76063 7.27287,-9.48758 11.87055,-13.25063 7.67065,-6.27931 15.88542,-7.38718 24.92941,-10.47759 24.66366,-8.42685 35.14994,-40.39083 38.48025,-64.1081 3.75754,-26.75717 -14.62226,-67.786959 -46.711,-65.14862"
           id="path8543"
           inkscape:connector-curvature="0"
           style="fill:#89c5cc" />
        <path
           d="M 187.08728,8.2818784 C 160.49848,29.163511 144.58611,61.07338 131.2885,91.305359 116.43664,125.07145 104.87305,159.85285 99.484323,196.37211 c -3.539948,23.99335 -7.589711,48.06798 -9.559287,72.2536 -0.700053,8.58944 -1.05019,17.24324 -0.884335,25.86098 0.01389,0.70818 0.390346,19.95093 3.89734,15.97216 1.994507,-2.26264 -0.353269,-19.95631 -0.313028,-22.84269 0.229831,-16.25678 2.023085,-32.41403 4.382537,-48.48931 3.88452,-26.46741 6.80735,-52.9317 13.20153,-78.94708 0.95406,-3.88434 1.85252,-7.97867 3.3303,-11.70209 1.5697,-3.95872 0.0526,-2.34758 3.5178,-3.51509 3.3671,-1.1353 7.22235,-0.36376 10.76404,-1.88383 14.04858,-6.03044 23.50455,-25.26311 30.51788,-37.76866 8.02142,-14.3006 13.87153,-29.930045 18.97082,-45.449075 3.7451,-11.40244 6.88151,-22.817869 9.39689,-34.546727 0.79262,-3.696549 1.35737,-7.599252 2.60728,-11.167837 0.33681,-0.96266 1.57508,-2.575312 1.66238,-3.45748 C 191.16114,8.8219432 190.19407,7.5727246 190.32156,6 c -1.0938,0.7373788 -2.17292,1.4985159 -3.23428,2.2818784"
           id="path8545"
           transform="rotate(-8,140,158.5)"
           inkscape:connector-curvature="0"
           style="fill:#89c5cc" />
        <path
           d="m 38,328 c 0,40.31679 32.683213,73 73,73 40.31679,0 73,-32.68321 73,-73"
           id="Base"
           inkscape:connector-curvature="0"
           style="fill:#89c5cc" />
        <path
           d="M 116.85729,328.23237 H 113 c 0.26764,-4.83953 0.62115,-9.67058 1.43019,-14.45622 3.09437,-18.30285 12.76975,-45.18494 33.99009,-48.15568 0.78285,-0.11072 3.66257,-0.12931 7.15089,0.0752 1.65325,-0.92377 3.50516,-1.48242 5.45639,-1.61088 18.06705,-1.33198 38.24359,13.24369 46.9585,28.41183 7.02547,12.2295 5.84193,28.28844 1.50257,41.28113 -2.90581,8.69841 -9.24775,21.10033 -19.82383,21.22119 -13.23188,0.15128 -13.86995,-16.20262 -14.12585,-25.7631 -0.34008,-12.7104 -1.94619,-23.78288 -11.96164,-32.44664 -2.33425,-2.01825 -4.88568,-3.79393 -7.24349,-5.78429 -3.69203,-3.11527 -7.77212,-6.30492 -8.24773,-11.45872 -0.65658,-7.11035 3.35701,-8.38993 9.48514,-7.06894 1.04465,0.22481 11.56769,4.94674 10.00956,1.2145 -0.4756,-1.14012 -2.21303,-2.0436 -4.40585,-2.72058 -5.67442,-0.61697 -12.44146,-1.33282 -14.38765,-0.90517 -20.99558,4.60614 -29.17007,33.68903 -31.34102,52.16682 -0.23429,1.99448 -0.42376,3.99547 -0.58898,5.99953 z"
           id="path8548"
           inkscape:connector-curvature="0"
           style="fill:#69a1ac" />
      </g>
      <g
         id="Plant-Left"
         transform="translate(22,79)"
         style="opacity:0.5">
        <path
           d="m 178.22298,111.44452 c 4.20233,-5.99201 12.00065,-21.209747 17.91535,-23.350872 3.80961,-1.379082 2.69886,12.886462 2.74591,15.606592 0.18321,10.52375 -0.84131,20.98076 -2.10651,31.41615 -2.2794,18.82018 -9.7328,35.58098 -19.95571,51.59889 -5.26049,8.24219 -11.43062,16.58432 -19.97655,21.72705 -3.9337,2.36833 -8.66693,2.76487 -12.5517,4.80538 -4.52439,2.37542 -2.06042,0.45514 -4.0994,5.16978 -2.83157,6.54564 -3.73726,14.99022 -5.04739,21.97466 -6.01543,32.06236 -20.57868,201.55236 -18.05397,234.16591 0.22424,2.89072 -3.8065,3.582 -4.00772,0.053 -1.0695,-18.71157 8.18515,-148.28891 12.85427,-190.66443 4.66913,-42.37551 9.39407,-79.81216 14.13176,-94.47276 5.74753,-17.78643 16.12789,-39.17598 24.76882,-55.76259 4.01364,-7.70577 8.38859,-15.14607 13.38284,-22.26679 z"
           id="Leaf"
           inkscape:connector-curvature="0"
           style="fill:#69a1ac" />
        <path
           d="m 209.41413,319.27776 c 10.93504,-8.02806 22.77139,7.1233 12.87631,15.1526 -5.47023,4.43811 -11.18905,2.85935 -14.40858,-0.83916 -2.08999,2.54759 -4.04615,5.21134 -5.92577,7.46129 -5.72671,6.85601 -11.13932,13.87566 -16.31221,21.05899 -10.74587,14.92318 -19.95489,30.68921 -29.58357,46.16694 -9.50225,15.27568 -18.92852,30.6296 -27.54124,46.2923 C 121.22288,467.84083 111.49799,483.45204 109,498 c 3.79011,-30.8537 18.17186,-60.50956 35.29802,-87.70946 16.9868,-26.97645 36.48113,-56.43773 62.78301,-77.72696 -2.67689,-3.93654 -2.7512,-9.55565 2.3331,-13.28582 z"
           id="path8552"
           inkscape:connector-curvature="0"
           style="fill:#c1dee2" />
        <path
           d="m 1.9131966,244.03077 c 6.119244,1.19672 16.1180194,15.0394 21.1621014,20.31357 5.994552,6.26762 11.433099,12.948 16.559569,19.94738 11.036241,15.06587 20.906218,31.08402 29.299057,47.78814 13.682523,27.23106 24.644004,55.18469 32.599216,84.8378 4.86968,18.15173 8.02259,36.9653 9.89118,55.64749 0.35289,3.52335 4.04688,30.6877 -1.27593,31.41986 -4.78731,0.65926 -3.30869,-20.62645 -3.53964,-23.52183 -2.61068,-32.66531 -10.431516,-64.44839 -21.310229,-95.23708 -2.369539,-6.70702 -4.570926,-14.92193 -8.360379,-20.9576 -2.728937,-4.3474 -0.01957,-2.83132 -4.815318,-4.47661 -4.117914,-1.41358 -8.809691,-1.06816 -13.026528,-2.7985 C 49.935634,353.23666 42.600572,345.94373 36.170888,338.60791 23.675758,324.35137 13.774003,308.92804 8.6126365,290.66039 5.7494672,280.53158 3.1183607,270.34385 1.6582582,259.90183 1.2805551,257.20288 -2.0281623,243.25997 1.9131966,244.03077 Z"
           id="path8554"
           inkscape:connector-curvature="0"
           style="fill:#69a1ac" />
        <path
           d="m 26.061363,13.716032 c 23.049925,39.97438 41.991409,83.885187 54.222062,128.360198 7.410316,26.94692 12.592572,54.59843 17.741556,82.05019 7.972269,42.50563 15.513129,85.00798 17.658149,128.26863 2.15802,43.51136 6.42537,93.69661 -7.8223,135.60495 7.11678,-42.54835 0.34113,-87.83776 -0.85857,-130.65018 -0.5733,-20.43796 -2.23463,-40.67609 -4.41399,-60.99462 -2.11485,-19.71006 -5.56991,-39.32627 -8.787353,-58.88141 -1.567275,-9.52371 -3.213268,-19.03309 -4.889117,-28.53726 -0.500299,-2.83558 -0.711635,-11.24975 -2.510362,-13.18686 -1.810375,-1.94987 -11.04715,-2.74476 -13.947069,-4.17545 -5.839442,-2.8816 -11.332225,-6.9747 -16.19348,-11.29958 C 46.941798,171.98395 38.834658,161.15116 32.435855,150.47249 17.630684,125.76373 11.711583,95.610044 12.010759,66.994155 12.068241,61.438242 21.003398,1.6099513 17.414895,0.78606626 17.630954,0.53302938 17.835328,0.27176118 18.028036,0 c 2.716804,4.5487845 5.382776,9.1283956 8.033327,13.716032 z"
           id="path8556"
           inkscape:connector-curvature="0"
           style="fill:#89c5cc" />
        <path
           d="m 274.84616,157.88729 c 0.35565,-0.51299 2.67039,-4.08063 1.50476,-3.85262 2.37326,-0.46423 -3.26427,3.93473 2.64908,1.23555 -2.8077,2.65169 -1.18728,6.09627 -1.14981,9.66516 0.0611,5.79428 -0.90833,11.54105 -1.99963,17.21101 -1.72443,8.96248 -4.29337,17.67663 -8.02213,26.01281 -8.12696,18.16643 -21.92695,35.65495 -38.3101,47.01247 -8.08791,5.60766 -16.01442,7.51687 -25.23869,10.09842 -5.82643,1.63094 -6.28848,4.64487 -9.38117,10.29877 -6.43874,11.77587 -12.76281,23.50939 -18.44121,35.68258 -6.78038,14.53607 -13.3625,29.08816 -19.57135,43.88012 -20.91649,49.82593 -37.94057,101.44633 -46.8811,154.86844 -0.2189,-31.48149 7.06382,-63.90472 16.25028,-93.91181 6.69178,-21.86249 15.40322,-42.93727 24.69483,-63.79869 2.25154,-5.05393 5.66355,-11.55499 6.61971,-17.13474 0.6695,-3.90946 -1.37737,-7.6692 -2.31453,-11.78751 -3.6536,-16.03744 -3.3921,-34.00454 -0.1837,-50.12774 3.53751,-17.77887 13.76783,-26.03066 31.07373,-28.54892 6.32911,-0.92115 14.37358,-0.58355 20.17707,-3.28216 6.32281,-2.93871 8.93106,-12.59819 12.52644,-18.79882 9.65708,-16.65621 21.13108,-32.63053 34.3064,-46.66476 3.64812,-3.88626 7.57134,-7.4716 11.73343,-10.79476 2.62461,-2.09674 8.16903,-4.67991 9.95769,-7.2628 z"
           id="path8558"
           inkscape:connector-curvature="0"
           style="fill:#89c5cc" />
        <path
           d="m 80.791453,476 h 61.417097 c 2.76142,0 5,2.23858 5,5 0,0.24414 -0.0179,0.48795 -0.0535,0.72948 l -4.74699,32.18846 C 140.96096,523.73048 132.54074,531 122.62207,531 h -22.24414 c -9.918669,0 -18.33889,-7.26952 -19.785992,-17.08206 l -4.746984,-32.18846 c -0.402883,-2.73187 1.48514,-5.2731 4.217016,-5.67598 C 80.303499,476.01788 80.547312,476 80.791453,476 Z"
           id="path8560"
           inkscape:connector-curvature="0"
           style="fill:#c1dee2" />
      </g>
      <g
         id="Maceta"
         transform="translate(32,523)"
         style="fill:#f2f2f2">
        <path
           d="M 15.417722,48.455696 C 15.417722,69.743127 17.097605,87 39.64557,87 62.193534,87 63.873418,69.743127 63.873418,48.455696"
           id="path8563"
           inkscape:connector-curvature="0" />
        <path
           d="m 46.353417,35.174166 c -0.826498,1.429039 -1.563454,2.886658 -2.214403,4.36616 -0.02297,-3.046978 0.145506,-6.116285 0.605588,-9.22757 0.78644,-5.32942 1.987602,-10.631153 3.116306,-15.924401 C 48.672089,10.584433 48.620838,3.7518432 51.699441,0.72049533 52.543612,0.06537051 52.74685,1.350612 52.74685,1.9083836 52.75745,2.0262793 52.74445,-0.36825336 51.925064,0.04884725 47.054438,2.5644016 45.476257,10.47413 43.916926,14.434352 41.641847,20.214813 39.706085,26.123887 38.909041,32.137906 38.707571,33.657153 38.598,35.175953 38.572669,36.692073 38.407134,36.286584 38.251613,35.877968 38.079598,35.473818 35.268443,28.880592 31.474681,22.447239 26.743081,16.51405 25.578443,15.054198 10.934166,0.64948999 9.7877898,2.8542284 c 0.1131059,0.320194 0.3499212,0.5859058 0.7110362,0.7971355 0.02121,0.024115 0.0218,0.010718 0.0094,-0.025008 0.860077,1.3892933 3.305404,3.5350839 4.067102,4.7524461 1.916911,3.063501 3.406728,6.314564 4.920699,9.503552 3.198778,6.739256 6.166042,13.546392 9.042586,20.367818 0.6698,1.588912 1.367875,3.168893 2.08009,4.743961 C 23.276854,32.404511 13.482585,22.790655 0,17.28707 c 4.6049445,2.34273 7.624049,6.750421 10.733874,10.125185 3.750759,4.070527 7.70122,8.031642 11.459048,12.097704 4.43234,4.796656 9.647586,9.847861 13.910856,15.155846 4.129546,8.669798 8.142451,17.348974 10.61959,26.462666 -1.015008,-3.148797 -0.07953,-7.500219 -0.25331,-10.80487 -0.137848,-2.630324 -0.445355,-5.239213 -0.866557,-7.843189 0.520759,1.174491 0.969648,2.349875 1.172885,3.44309 -0.185564,-1.833635 -0.399405,-3.655659 -0.629152,-5.468305 0.589683,-1.696983 1.168762,-3.280536 1.55992,-4.584981 2.004686,-6.691472 4.391693,-13.267729 7.642311,-19.677413 3.007912,-5.92917 6.458233,-11.782869 10.217828,-17.457938 1.753732,-2.645954 3.531616,-5.282083 5.298308,-7.922679 C 72.021991,9.0834965 73.123007,6.3156276 74.733,4.6592826 64.326073,14.174 52.955978,23.757489 46.353417,35.174166"
           id="Fill-27"
           inkscape:connector-curvature="0" />
      </g>
      <g
         id="Top-Leaves"
         transform="translate(495)"
         style="fill:#f2f2f2">
        <path
           d="m 211.45999,136.91362 c 0.238,-10.386 -4.017,-19.958 -8.727,-28.992 -9.169,-17.587001 -13.755,-28.109001 -12.273,-48.996001 0.872,-12.284 1.914,-25.263 -4.356,-36.418 -4.565,-8.123 -14.141,-16.8129997 -24.253,-15.3439997 -16.007,3.6459997 -24.943,18.8979997 -28.369,34.0419997 -4.246,18.77 0.616,32.774 14.79,44.801 7.987,6.775 12.492,13.754 14.67,24.072001 1.743,8.251 1.248,17.713 4.229,25.648 4.457,11.862 12.504,19.106 24.608,21.309 -4.368,-23.512 -10.504,-47.806 -20.343,-69.604001 -0.883,-2.157 -7.23,-11.377 -4.589,-13.706 2.909,-2.564 7.71,12.178 7.672,12.086 2.789,6.551 5.142,13.314 7.404,20.105001 -0.012,0.002 -0.025,0.001 -0.038,0.003 2.335,6.973 4.61,14.018 6.783,21.109 0.844,2.975 1.634,5.967 2.336,8.999 1.03,4.449 1.152,16.166 4.073,19.645 0.625,0.744 1.261,1.253 1.902,1.586 1.17,4.906 2.262,9.823 3.219,14.75 2.499,12.868 3.944,26.067 2.324,39.152 -0.473,3.819 -5.332,17.101 -3.722,20.492 2.943,6.202 4.598,-3.362 5.226,-6.207 5.193,-23.562 3.316,-45.683 -2.35,-68.751 5.209,-3.588 9.687,-15.573 9.784,-19.781"
           id="path8567"
           transform="rotate(-18,171.73476,120.35244)"
           inkscape:connector-curvature="0" />
        <path
           d="m 115.85853,100.65925 c -7.60151,1.11192 -14.77699,10.71964 -18.317494,17.12555 -4.381105,7.92661 -7.436597,16.97088 -9.738523,25.67825 -3.792453,14.34345 -4.304947,30.26336 -4.351901,44.95348 -0.0057,1.77022 -0.375066,23.39348 2.153045,23.03874 2.504634,-0.35128 0.91848,-22.79611 1.132067,-27.44388 0.454659,-9.91875 -0.225039,-19.70067 2.10151,-29.49351 2.408434,-10.14011 6.824468,-19.69608 12.404636,-28.45461 0.71634,-1.124 2.23207,-5.30319 3.95393,-4.33788 1.68407,0.94404 -2.98105,6.51112 -3.64357,7.59315 -2.7354,4.46838 -5.110622,9.20008 -7.077566,14.06115 -3.685373,9.10752 -5.60021,18.63819 -5.534931,28.45174 5.785165,0.88827 10.825353,-2.49924 12.765957,-8.14394 1.67663,-4.87888 1.8404,-10.55405 3.74493,-15.16732 1.31186,-3.17708 3.39849,-5.87525 5.95008,-8.15658 6.73113,-6.01726 13.7583,-7.52243 15.76476,-17.50903 1.57298,-7.82887 -0.38022,-23.786151 -11.30693,-22.19531"
           id="path8569"
           transform="matrix(-0.52991926,0.8480481,0.8480481,0.52991926,29.162335,-16.164946)"
           inkscape:connector-curvature="0" />
        <path
           d="M 2.3517646,80 H 0 C 0.16475746,77.0154 0.3793521,74.035656 0.8836734,71.084484 2.7741771,60.022326 8.6853441,43.774909 21.6499,41.979403 c 0.478283,-0.06692 2.237645,-0.07815 4.368833,0.04546 1.010051,-0.558318 2.141474,-0.895965 3.333581,-0.973609 11.038053,-0.80504 23.364898,8.004434 28.689269,17.171988 4.292204,7.391459 3.569123,17.09741 0.917994,24.950132 -1.775304,5.257283 -5.649911,12.752948 -12.111361,12.825994 -8.084011,0.09144 -8.473838,-9.792789 -8.63018,-15.571101 C 38.010266,72.746156 37.029014,66.054 30.910077,60.817659 29.483971,59.597839 27.925179,58.524622 26.484673,57.321658 24.229029,55.438803 21.7363,53.510996 21.44573,50.39606 c -0.401141,-4.297466 2.05096,-5.070836 5.794939,-4.272436 0.638225,0.135876 7.067275,2.989786 6.115337,0.734037 -0.29057,-0.689086 -1.352049,-1.235145 -2.691756,-1.644306 -3.466781,-0.372893 -7.6011,-0.805551 -8.790123,-0.54708 C 9.0468849,47.450206 4.0526843,65.027779 2.7263488,76.195675 2.5761854,77.460255 2.4561642,78.729161 2.3517645,80 Z"
           id="path8571"
           transform="matrix(-1,0,0,1,61.104844,0)"
           inkscape:connector-curvature="0" />
      </g>
    </g>
  </g>
  <g
     inkscape:groupmode="layer"
     id="layer3"
     inkscape:label="People">
    <g
       id="humaaans/sitting-3"
       style="fill:none;fill-rule:evenodd;stroke:none;stroke-width:1"
       transform="matrix(-1,0,0,1,890,281)">
      <g
         transform="matrix(-1,0,0,1,340,24)"
         id="A-Human/Sitting">
        <g
           transform="translate(82)"
           id="Head/Front/Short-Beard">
          <g
             transform="translate(54,31)"
             id="Head"
             style="fill:#b28b67;stroke-width:1">
            <path
               id="path20936"
               d="M 8.2622739,34.490127 C 3.6543643,29.081376 0.53563479,22.452877 1.0567763,15.025454 2.5583302,-6.3750206 32.348531,-1.6671889 38.143341,9.1339329 43.938152,19.935055 43.249578,47.332996 35.760301,49.263458 32.773588,50.033323 26.411001,48.147461 19.935372,44.244306 L 24,73 H 0 Z"
               inkscape:connector-curvature="0" />
          </g>
          <path
             id="Hair"
             d="m 75.135305,48.388929 c 0.918684,12.797176 3.348846,19.195765 7.290486,19.195765 5.912807,0 10.929403,-3.75365 13.5238,-3.75365 1.891228,0 1.468975,2.366696 0.215371,4.121434 -1.034265,1.447714 -6.071045,2.843138 -6.071045,5.087581 0,2.244444 3.979474,0.508042 3.979474,1.839177 0,2.201861 0.699387,6.341753 -3.122167,6.341753 -3.86754,0 -14.956462,-1.409405 -16.856802,-7.149517 C 72.867997,70.366972 72.075026,62.690555 71.715507,51.04222 71.48089,51.014341 71.24212,51 71,51 c -3.313709,0 -6,2.686292 -6,6 0,1.682218 0.692292,3.202743 1.807515,4.292214 -1.388319,1.959602 -2.944226,4.006669 -4.727129,6.118976 -6.697981,-4.018516 -11.668263,-15.782219 -5.1199,-27.082912 1.809988,-5.536033 5.907549,-8.493037 10.746866,-9.866069 3.920096,-1.639789 7.989527,-1.824676 11.424706,-0.841638 6.733903,0.577593 12.746955,2.630942 14.451103,3.850376 0,6.375224 -1.235291,8.266734 -11.786355,8.100005 -2.592568,1.369184 -4.585603,3.726918 -6.661501,6.817977 z"
             inkscape:connector-curvature="0"
             style="fill:#191847" />
        </g>
        <g
           transform="translate(0,187)"
           id="Bottom/Sitting/Wheelchair">
          <path
             id="Skin"
             d="M 254.88377,18.095732 C 262.06365,8.3580655 280.01081,14.804277 280,22.865556 279.97161,44.031128 260.65668,144.512 259.64822,150.85587 c -1.00845,6.34386 -11.81157,8.41921 -12.44067,0.49258 -1.00101,-12.6126 -2.86075,-56.335731 -1,-76.676785 0.54351,-5.941517 1.11662,-11.684582 1.69384,-17.064901 -10.1512,18.236398 -25.58728,44.012066 -46.30826,77.327016 l -11.51656,-5.26161 c 9.0436,-29.796071 16.45921,-50.831308 22.24683,-63.105706 9.90983,-21.016749 19.20191,-39.014792 23.11264,-45.354457 5.1658,-8.374237 13.54457,-7.262546 19.44773,-3.116275 z"
             inkscape:connector-curvature="0"
             style="fill:#b28b67" />
          <path
             transform="rotate(20,228.82502,67.41963)"
             id="Leg-Back"
             d="m 208.81922,123.34011 5.1177,-101.510175 c 3.68844,-17.5525354 34.90673,-9.4064 34.89389,0 -0.0291,21.35544 -12.85729,95.126825 -12.86597,101.489325 z"
             inkscape:connector-curvature="0"
             style="fill:#1f28cf" />
          <path
             id="Leg-Front"
             d="m 281,30.176551 c 0,26.541179 -11.63374,88.929439 -11.64173,94.773889 L 241.17615,124 c 4.92627,-54.242814 7.00373,-81.547996 6.23237,-81.915548 -1.73557,-0.82699 -71.14639,9.606718 -91.96382,10.394574 C 125.42585,53.615118 113.00766,35.198817 112,0.25055648 h 58.14765 C 219.86905,6.1856709 252.548,10.313642 268.18451,12.63447 278.2259,14.124849 281,22.86514 281,30.176551 Z"
             inkscape:connector-curvature="0"
             style="fill:#2b44ff" />
          <g
             transform="rotate(14,-317.05274,832.84095)"
             id="Objects/Seat/Cube-2"
             style="fill:#c5cfd6">
            <path
               id="Seat"
               d="m 27.306034,0 h 6.650863 c 8.836555,0 16,7.163444 16,16 v 8 c 0,8.836556 -7.163445,16 -16,16 H 27.306034 C 18.469478,40 11.306035,32.836556 11.306035,24 v -8 c 0,-8.836556 7.163443,-16 15.999999,-16 z m -4.637931,9.0322581 c -2.209139,0 -4,1.7908609 -4,3.9999999 v 13.935484 c 0,2.209139 1.790861,4 4,4 h 15.926725 c 2.209139,0 4,-1.790861 4,-4 V 13.032258 c 0,-2.209139 -1.790861,-3.9999999 -4,-3.9999999 z"
               inkscape:connector-curvature="0" />
          </g>
          <g
             transform="translate(243,111)"
             id="Accessories/Shoe/Flat-Sneaker"
             style="fill:#e4e4e4">
            <path
               id="shoe"
               d="M 2.6781318,25.401924 C 1.5593773,28.388411 1,30.622993 1,32.105671 1,33.908957 1.3004142,36.5404 1.9012426,40 c 2.0919386,0 20.8925424,0 56.4018124,0 1.465683,-4.845493 0.619606,-7.461418 -2.538232,-7.847777 -3.157838,-0.386358 -5.781107,-0.735209 -7.869809,-1.046552 L 21.679993,19.418883 c -0.50443,-0.224877 -1.095649,0.0017 -1.320526,0.506174 -0.0038,0.0086 -0.0076,0.01731 -0.01117,0.02605 l -1.685082,4.08759 c -2.923332,1.363957 -5.298842,2.045936 -7.126532,2.045936 -1.484954,0 -3.5356885,-0.599726 -6.1522031,-1.799176 l 5.5e-6,-1.2e-5 c -1.0041007,-0.460295 -2.1912281,-0.01945 -2.6515233,0.984647 -0.019839,0.04328 -0.038127,0.08725 -0.054828,0.131834 z"
               inkscape:connector-curvature="0" />
          </g>
          <rect
             rx="3.5"
             height="7"
             width="53"
             y="151"
             x="245"
             id="Base-6"
             style="fill:#2f3676" />
          <path
             id="path20949"
             d="m 109,6 h 107 c 5.52285,0 10,4.477153 10,10 V 65 H 103 c -2.20914,0 -4,-1.790861 -4,-4 V 16 c 0,-5.522847 4.47715,-10 10,-10 z"
             inkscape:connector-curvature="0"
             style="fill:#2f3676" />
          <path
             id="Wheel-Stuff"
             d="m 216,6 h 2.19368 c 4.89752,0 9.0744,3.5470189 9.86788,8.379841 L 250,148 h -10.68571"
             inkscape:connector-curvature="0"
             style="fill:#2f3676" />
          <circle
             r="18"
             cy="150"
             cx="245"
             id="Front-Wheel"
             style="fill:#191847" />
          <g
             transform="translate(36,14)"
             id="Wheel"
             style="fill:#191847;stroke-width:1">
            <path
               id="path20953"
               d="M 76,152 C 34.026359,152 0,117.97364 0,76 0,34.026359 34.026359,0 76,0 c 41.97364,0 76,34.026359 76,76 0,41.97364 -34.02636,76 -76,76 z m 0,-14 c 34.24165,0 62,-27.75835 62,-62 0,-34.241655 -27.75835,-62 -62,-62 -34.241655,0 -62,27.758345 -62,62 0,34.24165 27.758345,62 62,62 z"
               inkscape:connector-curvature="0" />
            <rect
               height="132"
               width="8"
               y="10"
               x="72"
               id="rect20955" />
            <rect
               rx="2"
               height="132"
               width="8"
               y="10"
               x="72"
               transform="rotate(45,76,76)"
               id="rect20957" />
            <rect
               rx="2"
               height="132"
               width="8"
               y="10"
               x="72"
               transform="rotate(90,76,76)"
               id="rect20959" />
            <rect
               rx="2"
               height="132"
               width="8"
               y="10"
               x="72"
               transform="rotate(135,76,76)"
               id="rect20961" />
          </g>
        </g>
        <g
           transform="translate(22,82)"
           id="Body/Hoodie">
          <path
             id="path20965"
             d="m 190.7812,92.211485 31.89828,23.423595 c 8.65146,2.33448 15.87948,5.23897 21.68406,8.71346 1.37114,1.2494 3.0283,3.77966 -2.65816,3.34237 -5.68646,-0.4373 -11.68742,-0.64152 -12.47204,1.29804 -0.78462,1.93957 2.65651,4.25907 1.07045,6.87605 -1.05737,1.74465 -6.05282,-2.63 -14.98636,-13.12395 l -31.58766,-13.0986 z M 68.307928,93.019891 89.20532,93.102071 C 76.302145,134.75574 69.336347,156.85691 68.307928,159.4056 c -2.313943,5.73453 2.582672,14.46813 4.676659,19.1615 -6.820046,3.05177 -6.093363,-8.25017 -14.696668,-4.24761 -7.852698,3.65336 -13.826226,10.27299 -22.898884,4.67488 -1.11543,-0.68825 -2.337759,-3.27966 0.615543,-5.3047 7.357754,-5.04512 17.960724,-13.875 19.393352,-16.78142 1.953644,-3.96342 6.256977,-25.25954 12.909998,-63.888359 z"
             inkscape:connector-curvature="0"
             style="fill:#b28b67" />
          <path
             transform="rotate(5,173.86418,64.29484)"
             id="Coat-Back"
             d="m 122.73173,9.5803108 8.48495,-2.2311707 C 165.5935,32.162836 183.36171,84.056341 224.99662,108.72736 l -8.40689,12.51318 c -68.70049,-2.4689 -91.20642,-65.693638 -93.858,-111.6602292 z"
             inkscape:connector-curvature="0"
             style="fill:#e87613" />
          <path
             id="Shirt"
             d="m 90,114 c 34.67176,0 60.17557,0 76.51145,0 3.49618,0 2.83739,-5.04836 2.332,-7.59579 C 163.01059,77.003766 140.2413,45.311515 140.2413,3.4607303 L 118.1718,0 C 99.917485,29.358407 93.604826,65.50455 90,114 Z"
             inkscape:connector-curvature="0"
             style="fill:#dde3e9" />
          <path
             id="Coat-Front"
             d="M 90.614841,28.857958 C 87.409523,27.936588 84.871242,25.787666 83,22.41119 74.933557,7.8560758 77.846727,-0.15759279 86.467196,-2.7917309 95.087666,-5.425869 102.77532,0 116.51003,0 c 0.74706,0 1.43127,0.04683253 2.05265,0.1404976 l 6.90891,0.39424234 C 145.29399,67.715194 150.76088,112.53695 141.87228,135 H 81.651814 c -3.567999,8.31987 -6.982273,15.31987 -10.242821,21 H 55 C 53.455683,106.06709 65.327297,63.68641 90.614841,28.857958 Z"
             inkscape:connector-curvature="0"
             style="fill:#ff9b21" />
          <path
             id="Shade"
             d="M 94.765229,100.49763 C 96.659151,116.34402 99.737408,127.84481 104,135 H 81.651814 c 4.161971,-9.7049 8.533109,-21.20569 13.113415,-34.50237 z"
             inkscape:connector-curvature="0"
             style="fill:#000000;fill-opacity:0.1" />
        </g>
      </g>
    </g>
    <g
       id="humaaans/standing-3"
       style="fill:none;fill-rule:evenodd;stroke:none;stroke-width:1"
       transform="matrix(-1,0,0,1,1166.7501,188.29345)">
      <g
         transform="translate(24,10)"
         id="humaaan-12">
        <g
           transform="rotate(15,68.349417,524.20532)"
           id="Head/Front/Pony-1">
          <g
             transform="translate(56.316359,32.329762)"
             id="Head-2"
             style="fill:#d4a181;stroke-width:1">
            <path
               id="path24824"
               d="M 8.6166886,35.9696 C 3.8111203,30.328837 0.55861114,23.416005 1.1021073,15.669979 2.6680712,-6.6484806 33.736139,-1.7387038 39.779521,9.525738 45.822903,20.79018 45.104792,49.363371 37.294259,51.37664 34.179429,52.17953 27.543915,50.212773 20.790511,46.14219 l 4.238982,29.989185 H 0 Z"
               inkscape:connector-curvature="0" />
          </g>
          <path
             id="hair-7"
             d="m 73.595805,66.730014 c -3.103759,5.957697 -7.396437,10.444256 -11.685001,10.444256 -8.145761,0 -13.937609,-10.890666 -13.937609,-22.599996 0,-0.411405 0.0082,-0.820072 0.02424,-1.225688 -8.616761,5.913021 -15.257594,17.568311 -26.65901,17.568311 -15.5115236,0 -21.67179642,-31.286866 0,-31.286866 14.738469,0 21.988233,2.148866 28.236114,5.326533 1.232286,-3.474001 3.111318,-6.394783 5.409001,-8.434465 0.552756,-0.622241 1.400194,-1.217579 2.493484,-1.769488 0.668394,-0.365693 1.360063,-0.663535 2.070935,-0.887672 3.768013,-1.384701 9.225745,-2.36137 15.322146,-2.574261 1.138393,-0.03975 2.256428,-0.05139 3.347117,-0.03673 0.01775,-5.744614 4.680129,-10.396035 10.428904,-10.396035 5.759753,0 10.428956,4.669202 10.428956,10.428955 0,5.570201 -4.366934,10.120449 -9.863969,10.413912 -3.14458,0.970287 -7.184804,1.682691 -11.665371,1.983108 0.435018,1.635927 0.671429,3.494401 0.671429,5.594558 0,1.854417 -0.204679,3.821127 -0.581562,5.818052 -0.971782,-1.155069 -2.271171,-1.908823 -3.59002,-1.908823 -3.689312,0 -6.257373,3.034981 -6.257373,6.257373 0,4.08972 2.360999,7.048333 5.807594,7.284968 z"
             inkscape:connector-curvature="0"
             style="fill:#191847" />
        </g>
        <g
           transform="translate(0,211.70655)"
           id="Bottom/Standing/Sweatpants">
          <polygon
             points="189.66115,230.47992 207.69598,230.47992 189.69329,9.9475983e-14 133.49063,9.9475983e-14 171.69277,131.64148 "
             id="Leg-0"
             style="fill:#ba8b72" />
          <path
             id="path24830"
             d="m 116.3222,0 c 2.66562,68.387067 1.61434,105.68723 1.01774,111.90049 -0.5966,6.21327 -3.98352,47.82553 -27.063056,120.66522 H 109.0347 C 139.59975,162.68847 150.26971,121.07621 153.77529,111.90049 157.28087,102.72478 167.63441,65.424613 182.75012,0 Z"
             inkscape:connector-curvature="0"
             style="fill:#d4a181" />
          <path
             id="Pant"
             d="m 132.67054,0 c 9.93697,45.298194 27.12367,117.60562 51.5601,216.92227 h 26.37801 C 212.55696,114.98323 204.26892,47.890279 189.91609,0 Z"
             inkscape:connector-curvature="0"
             style="fill:#69a1ac" />
          <path
             id="path24833"
             d="m 116.18891,0 c 2.61062,68.387067 -4.15497,135.76128 -25.112312,217.98703 H 119.22047 C 149.84171,149.15269 171.78894,82.110942 186.78841,0 Z"
             inkscape:connector-curvature="0"
             style="fill:#89c5cc" />
          <g
             transform="translate(87.603226,207.53621)"
             id="Accessories/Shoe/Flat-Simple"
             style="fill:#191847">
            <path
               id="Shoe"
               d="M 0,38.587135 1.0349932,21.900807 c 6.0597396,1.772322 13.6496898,1.077059 22.7698498,-2.085792 9.806373,6.946323 22.151313,11.689466 37.034821,14.229431 l 2e-6,-1.2e-5 c 1.135541,0.193787 1.898982,1.27142 1.705195,2.40696 -0.01255,0.07354 -0.02903,0.146345 -0.04938,0.218114 l -1.430879,5.046314 H 23.804843 2.0699864 Z"
               inkscape:connector-curvature="0" />
          </g>
          <g
             transform="translate(185.63541,207.53621)"
             id="g24839"
             style="fill:#191847">
            <path
               id="path24837"
               d="M 0,38.587135 1.0349932,21.900807 c 6.0597396,1.772322 13.6496898,1.077059 22.7698498,-2.085792 9.806373,6.946323 22.151313,11.689466 37.034821,14.229431 l 2e-6,-1.2e-5 c 1.135541,0.193787 1.898982,1.27142 1.705195,2.40696 -0.01255,0.07354 -0.02903,0.146345 -0.04938,0.218114 l -1.430879,5.046314 H 23.804843 2.0699864 Z"
               inkscape:connector-curvature="0" />
          </g>
        </g>
        <g
           transform="rotate(10,-433.5704,342.65592)"
           id="Body/Pointing-Forward">
          <path
             id="Skin-9"
             d="M 165.4429,44.531882 201.64158,24.70601 c 6.01962,-7.148319 11.95062,-12.69999 17.793,-16.6550129 1.78525,-0.7453103 4.90719,-1.1964253 1.98758,3.9855889 -2.91961,5.182015 -5.75754,10.764022 -4.27012,12.360488 1.48743,1.596467 5.19646,-0.633727 6.97093,2.018816 1.18298,1.768362 -5.15359,4.561876 -19.00974,8.380541 l -26.30275,24.082993 z m 56.69385,16.727635 15.90053,-8.73491 c 2.23107,-8.489479 4.89804,-12.760822 8.00092,-12.814031 2.38365,-1.10909 -1.76746,9.618159 2.75119,8.687894 4.51865,-0.930265 15.54738,-9.132734 17.44769,-7.467323 2.81138,2.463868 0.30458,10.029372 -2.64902,13.792805 -5.52029,7.033852 -10.09085,9.439217 -21.38769,12.589058 -5.90657,1.646898 -12.29262,4.947966 -19.15815,9.903201 z"
             inkscape:connector-curvature="0"
             style="fill:#d4a181" />
          <path
             transform="rotate(-9,173.01458,45.624657)"
             id="Sleeve"
             d="m 148.98596,36.240936 c 12.54396,1.851154 29.66235,1.851154 49.2722,-6.637147 l 4.52604,16.713608 C 188.56157,56.568277 169.69236,63.852861 154.64858,61.035145 142.79324,58.81463 138.98849,43.446554 148.98596,36.240936 Z"
             inkscape:connector-curvature="0"
             style="fill:#2026a2" />
          <path
             id="Clothes"
             d="m 164.88624,65.453412 c 13.46043,3.356945 36.03274,-0.601821 67.71694,-11.8763 7.85899,16.258844 11.492,27.850152 10.89904,34.773926 -27.18037,14.197972 -50.4763,20.528132 -69.66903,20.946012 0.60992,11.38825 -0.77623,22.22443 -5.43275,32.12581 -9.573,20.35554 -65.62824,1.50404 -84.475728,5.21448 C 72.121859,108.30608 94.943032,92.728412 94.961394,68.201839 94.981503,41.342629 116.54818,0 119.72128,0 h 28.93696 c 1.59662,20.512733 9.63286,43.119541 16.228,65.453412 z"
             inkscape:connector-curvature="0"
             style="fill:#1f28cf" />
        </g>
      </g>
    </g>
    <g
       id="humaaans/standing-1"
       style="fill:none;fill-rule:evenodd;stroke:none;stroke-width:1"
       transform="matrix(-1,0,0,1,687.49063,189.314)">
      <g
         transform="translate(34,17)"
         id="humaaan-11">
        <g
           transform="rotate(-7,172.05678,-447.92178)"
           id="Head/Front/Airy">
          <g
             transform="translate(56.316359,32.329762)"
             id="Head-9"
             style="fill:#915b3c;stroke-width:1">
            <path
               id="path40882"
               d="M 8.6166886,35.9696 C 3.8111203,30.328837 0.55861114,23.416005 1.1021073,15.669979 2.6680712,-6.6484806 33.736139,-1.7387038 39.779521,9.525738 45.822903,20.79018 45.104792,49.363371 37.294259,51.37664 34.179429,52.17953 27.543915,50.212773 20.790511,46.14219 l 4.238982,29.989185 H 0 Z"
               inkscape:connector-curvature="0" />
          </g>
          <path
             id="hair"
             d="M 81.829704,28.872831 C 78.530889,28.331861 69.648685,27.95993 68.010648,27.96017 c -1.046783,0 -2.181177,0.23915 -2.801156,-0.722014 C 64.70178,26.451073 64.887773,25.119899 64.736249,24.206517 64.56031,23.145468 64.310403,22.098104 64.057624,21.053382 63.338305,18.08057 62.250589,15.252305 60.728648,12.596919 57.872915,7.6151 53.689373,3.712819 48.407823,1.442091 42.575472,-1.0651462 35.975688,-1.6392511 29.702171,-1.1306964 22.988685,-0.5866053 16.911455,1.6296175 10.572828,3.7152201 4.5324616,5.7026173 -1.7941963,6.4848984 -8.1117581,5.5143705 -14.476955,4.5366392 -19.28646,1.086727 -24.655382,-2.1876642 c -5.496269,-3.3521871 -11.777446,-5.544639 -18.275017,-5.0406464 -6.065262,0.4706172 -11.655366,2.974973 -16.670732,6.32043703 -4.692451,3.13008457 -8.564327,6.89598267 -10.750292,12.19618857 -2.351611,5.701432 -2.349457,11.95968 1.517632,16.998406 5.605185,7.30369 16.011017,9.192402 24.668221,9.004635 5.007467,-0.10829 9.925409,-1.022391 14.653048,-2.685159 6.304874,-2.217664 11.753269,-5.976358 17.651686,-9.026006 2.7681228,-1.43106 5.6293616,-2.606403 8.6284799,-3.453033 2.91031058,-0.8219 5.7768157,-1.198874 8.411846,0.559218 2.7875116,1.859898 5.2853801,3.686901 8.4743221,4.851199 3.059202,1.116995 6.299609,1.741764 9.558927,1.716552 6.341499,-0.04898 12.592754,-2.024855 18.751851,-3.348345 5.022547,-1.079058 10.396496,-2.154515 15.516948,-1.117236 2.136653,0.43292 5.257613,1.326612 6.029355,3.547157 -12.988679,2.354047 -18.089969,18.41746 -14.428263,30.209542 1.976273,6.364618 13.85592,13.804788 18.474883,10.458813 2.926246,-2.119772 1.149714,-4.902648 0,-6.739736 -2.201763,-3.518104 -2.955074,-8.037229 1.119074,-10.4866 3.514251,-2.112495 7.209245,2.90412 7.279142,2.898597 0.965874,-0.07612 9.31187,-4.796142 15.062109,-11.683859 5.672632,0.336268 6.533253,-3.40412 5.178739,-6.463054 -1.354513,-3.058934 -9.80895,-6.90863 -14.366873,-7.656575 z"
             inkscape:connector-curvature="0"
             style="fill:#191847" />
        </g>
        <g
           transform="translate(0,203.686)"
           id="Bottom/Standing/Sweatpants-3">
          <polygon
             points="189.66115,230.47992 207.69598,230.47992 189.69329,9.9475983e-14 133.49063,9.9475983e-14 171.69277,131.64148 "
             id="Leg"
             style="fill:#784931" />
          <path
             id="path40888"
             d="m 116.3222,0 c 2.66562,68.387067 1.61434,105.68723 1.01774,111.90049 -0.5966,6.21327 -3.98352,47.82553 -27.063056,120.66522 H 109.0347 C 139.59975,162.68847 150.26971,121.07621 153.77529,111.90049 157.28087,102.72478 167.63441,65.424613 182.75012,0 Z"
             inkscape:connector-curvature="0"
             style="fill:#915b3c" />
          <path
             id="Pant-1"
             d="m 132.67054,0 c 9.93697,45.298194 27.12367,117.60562 51.5601,216.92227 h 26.37801 C 212.55696,114.98323 204.26892,47.890279 189.91609,0 Z"
             inkscape:connector-curvature="0"
             style="fill:#69a1ac" />
          <path
             id="path40891"
             d="m 116.18891,0 c 2.61062,68.387067 -4.15497,135.76128 -25.112312,217.98703 H 119.22047 C 149.84171,149.15269 171.78894,82.110942 186.78841,0 Z"
             inkscape:connector-curvature="0"
             style="fill:#c5cfd6" />
          <g
             transform="translate(87.603226,207.53621)"
             id="Accessories/Shoe/Flat-Simple-9"
             style="fill:#191847">
            <path
               id="Shoe-4"
               d="M 0,38.587135 1.0349932,21.900807 c 6.0597396,1.772322 13.6496898,1.077059 22.7698498,-2.085792 9.806373,6.946323 22.151313,11.689466 37.034821,14.229431 l 2e-6,-1.2e-5 c 1.135541,0.193787 1.898982,1.27142 1.705195,2.40696 -0.01255,0.07354 -0.02903,0.146345 -0.04938,0.218114 l -1.430879,5.046314 H 23.804843 2.0699864 Z"
               inkscape:connector-curvature="0" />
          </g>
          <g
             transform="translate(185.63541,207.53621)"
             id="g40897"
             style="fill:#191847">
            <path
               id="path40895"
               d="M 0,38.587135 1.0349932,21.900807 c 6.0597396,1.772322 13.6496898,1.077059 22.7698498,-2.085792 9.806373,6.946323 22.151313,11.689466 37.034821,14.229431 l 2e-6,-1.2e-5 c 1.135541,0.193787 1.898982,1.27142 1.705195,2.40696 -0.01255,0.07354 -0.02903,0.146345 -0.04938,0.218114 l -1.430879,5.046314 H 23.804843 2.0699864 Z"
               inkscape:connector-curvature="0" />
          </g>
        </g>
        <g
           transform="rotate(-10,688.45989,20.077886)"
           id="Body/Hoodie-7">
          <path
             id="Skin-8"
             d="m 198.96487,96.166947 33.26656,24.428363 c 9.02258,2.43462 16.56065,5.4637 22.61422,9.08723 1.42996,1.303 3.15819,3.94179 -2.77219,3.48574 -5.93037,-0.45605 -12.18875,-0.66904 -13.00703,1.35373 -0.81828,2.02276 2.77047,4.44176 1.11637,7.17099 -1.10273,1.81949 -6.31247,-2.74281 -15.62921,-13.68691 L 191.61096,114.34562 Z M 71.238034,97.01003 93.031831,97.095735 C 79.575167,140.53616 72.310568,163.58538 71.238034,166.24339 c -2.413202,5.98052 2.693457,15.08875 4.877267,19.98345 -7.112596,3.18267 -6.354741,-8.60407 -15.32709,-4.42982 -8.189544,3.81007 -14.419309,10.71365 -23.881144,4.87541 -1.163277,-0.71778 -2.438039,-3.42034 0.641947,-5.53225 7.673369,-5.26153 18.731159,-14.47017 20.22524,-17.50126 2.037447,-4.13344 6.525374,-26.34307 13.46378,-66.62889 z"
             inkscape:connector-curvature="0"
             style="fill:#915b3c" />
          <path
             transform="rotate(5,181.32218,67.052802)"
             id="Coat-Back-4"
             d="M 127.99638,9.9912634 136.8453,7.6643855 C 172.69672,33.542479 191.22711,87.661983 234.64798,113.39128 l -8.76752,13.04994 C 154.23303,123.86642 130.7617,57.929617 127.99638,9.9912634 Z"
             inkscape:connector-curvature="0"
             style="fill:#1f28cf" />
          <path
             id="Shirt-5"
             d="m 93.860599,118.89009 c 36.159021,0 62.756841,0 79.793451,0 3.64615,0 2.95911,-5.26491 2.43203,-7.92162 C 170.00302,80.306885 146.25703,47.255178 146.25703,3.6091802 L 123.24084,0 C 104.2035,30.617752 97.620056,68.314403 93.860599,118.89009 Z"
             inkscape:connector-curvature="0"
             style="fill:#dde3e9" />
          <path
             id="Coat-Front-0"
             d="M 94.501814,30.095836 C 91.159002,29.134944 88.511841,26.893842 86.56033,23.37253 78.147873,8.1930664 81.186005,-0.16435281 90.176254,-2.9114837 99.166503,-5.6586146 107.18392,0 121.50779,0 c 0.7791,0 1.49267,0.04884144 2.1407,0.14652432 l 7.20527,0.41115359 C 151.52645,70.619875 157.22786,117.36428 147.95797,140.7909 H 85.154313 c -3.72105,8.67675 -7.281781,15.97702 -10.682193,21.90081 H 57.359255 C 55.748694,110.6169 68.129547,66.418274 94.501814,30.095836 Z"
             inkscape:connector-curvature="0"
             style="fill:#2b44ff" />
          <path
             id="Shade-3"
             d="m 98.830235,104.80854 c 1.975165,16.52612 5.185465,28.52024 9.630905,35.98236 H 85.154313 c 4.340501,-10.1212 8.899142,-22.11532 13.675922,-35.98237 z"
             inkscape:connector-curvature="0"
             style="fill:#000000;fill-opacity:0.1" />
        </g>
      </g>
    </g>
    <g
       id="humaaans/standing-5"
       style="fill:none;fill-rule:evenodd;stroke:none;stroke-width:1"
       transform="translate(-31.658589,196.40429)">
      <g
         transform="translate(34,14)"
         id="humaaan-10">
        <g
           transform="translate(84.439497)"
           id="Head/Front/Short-1">
          <g
             transform="translate(56.316359,32.329762)"
             id="Head-6"
             style="fill:#b28b67;stroke-width:1">
            <path
               id="path41659"
               d="M 8.6166886,35.9696 C 3.8111203,30.328837 0.55861114,23.416005 1.1021073,15.669979 2.6680712,-6.6484806 33.736139,-1.7387038 39.779521,9.525738 45.822903,20.79018 45.104792,49.363371 37.294259,51.37664 34.179429,52.17953 27.543915,50.212773 20.790511,46.14219 l 4.238982,29.989185 H 0 Z"
               inkscape:connector-curvature="0" />
          </g>
          <path
             id="Hair-1"
             d="m 85.057194,43.489171 c -3.396575,1.89996 -5.813809,5.460132 -8.723573,10.130021 -0.708686,-0.278547 -1.480497,-0.431519 -2.288037,-0.431519 -3.455852,0 -6.257373,2.801521 -6.257373,6.257373 0,1.754378 0.721988,3.340127 1.885049,4.476331 -1.447872,2.04366 -3.07052,4.178537 -4.929902,6.381453 C 57.804611,66.139864 52.64374,54.006768 59.268912,42.293845 64.969155,18.83201 97.26915,33.394515 103.4834,29.43758 c 1.35832,8.513895 -3.02289,15.378832 -18.426206,14.051591 z"
             inkscape:connector-curvature="0"
             style="fill:#191847" />
        </g>
        <g
           transform="translate(0,199)"
           id="Bottom/Standing/Baggy-Pants">
          <polygon
             points="238.82308,239.08411 186.33799,5.3087336e-13 139.748,0 190.93503,129.55569 225.26638,239.08411 "
             id="Leg-06"
             style="fill:#997659" />
          <path
             id="path41665"
             d="m 129.44068,0 c -0.54507,45.526759 -8.49417,106.82115 -9.76417,109.65906 -0.84667,1.89194 -30.074932,25.95122 -87.684798,72.17785 l 9.33727,9.99198 C 109.30329,152.19535 144.8632,129.73552 148.00871,124.44938 152.72699,116.52017 168.08806,43.554589 180.42093,0 Z"
             inkscape:connector-curvature="0"
             style="fill:#b28b67" />
          <g
             transform="rotate(50,-146.22525,132.4658)"
             id="Accessories/Shoe/Flat-Sneaker-3"
             style="fill:#e4e4e4">
            <path
               id="shoe-2"
               d="m 2.7930117,26.491554 c -1.1667441,3.114593 -1.7501162,5.445029 -1.7501162,6.991307 0,1.880639 0.3133007,4.62496 0.939902,8.232961 2.1816734,0 21.7887395,0 58.8211985,0 1.528555,-5.053343 0.646184,-7.78148 -2.647111,-8.184412 -3.293295,-0.402931 -6.029091,-0.766746 -8.207388,-1.091444 L 22.609968,20.251867 c -0.526067,-0.234523 -1.142647,0.0018 -1.377171,0.527887 -0.004,0.009 -0.0079,0.01806 -0.01165,0.02717 l -1.757364,4.262929 c -3.04873,1.422465 -5.526139,2.133697 -7.432229,2.133697 -1.548652,0 -3.6873536,-0.625451 -6.416105,-1.876352 l 5.7e-6,-1.3e-5 c -1.0471721,-0.48004 -2.2852219,-0.02029 -2.7652617,1.026884 -0.02069,0.04513 -0.039763,0.09099 -0.05718,0.13749 z"
               inkscape:connector-curvature="0" />
          </g>
          <g
             transform="translate(216.92227,207.53621)"
             id="g41671"
             style="fill:#e4e4e4">
            <path
               id="path41669"
               d="m 2.7930117,26.491554 c -1.1667441,3.114593 -1.7501162,5.445029 -1.7501162,6.991307 0,1.880639 0.3133007,4.62496 0.939902,8.232961 2.1816734,0 21.7887395,0 58.8211985,0 1.528555,-5.053343 0.646184,-7.78148 -2.647111,-8.184412 -3.293295,-0.402931 -6.029091,-0.766746 -8.207388,-1.091444 L 22.609968,20.251867 c -0.526067,-0.234523 -1.142647,0.0018 -1.377171,0.527887 -0.004,0.009 -0.0079,0.01806 -0.01165,0.02717 l -1.757364,4.262929 c -3.04873,1.422465 -5.526139,2.133697 -7.432229,2.133697 -1.548652,0 -3.6873536,-0.625451 -6.416105,-1.876352 l 5.7e-6,-1.3e-5 c -1.0471721,-0.48004 -2.2852219,-0.02029 -2.7652617,1.026884 -0.02069,0.04513 -0.039763,0.09099 -0.05718,0.13749 z"
               inkscape:connector-curvature="0" />
          </g>
          <polygon
             points="190.84989,2.8421709e-14 133.11944,2.8421709e-14 174.16356,227.80269 238.61916,220.8074 "
             id="Pant-0"
             style="fill:#69a1ac" />
          <path
             id="path41674"
             d="m 45.324197,165.7166 42.279029,50.04385 C 132.13482,167.12397 158.09685,135.38866 165.48933,120.55452 172.8818,105.72038 179.52726,65.535536 185.42571,0 h -64.99407 c -3.22202,57.655306 -5.3939,87.824451 -6.51561,90.507435 -1.12172,2.682983 -23.985661,27.752705 -68.591833,75.209165 z"
             inkscape:connector-curvature="0"
             style="fill:#89c5cc" />
        </g>
        <g
           transform="translate(18,87)"
           id="Body/Turtle-Neck">
          <path
             id="Skin-6"
             d="m 215.84264,99.393439 30.64953,29.707221 c 8.91788,3.77945 16.22482,7.95271 21.9208,12.51981 1.28094,1.53515 2.67546,4.47659 -3.35131,3.16034 -6.02677,-1.31625 -12.42561,-2.43145 -13.55833,-0.48413 -1.13272,1.94732 2.20494,4.93131 0.11153,7.47986 -1.39561,1.69903 -6.08913,-3.70525 -14.08059,-16.21284 L 205.66282,116.89414 Z M 65.96659,72.507374 89.658589,72.595715 C 71.614008,130.68123 62.035365,161.09388 60.922661,163.83368 c -2.503583,6.16453 2.794336,15.55302 5.059937,20.59832 -7.378986,3.2806 -6.592747,-8.86881 -15.901139,-4.56612 -8.496268,3.9273 -14.959358,11.04331 -24.775568,5.02543 -1.206846,-0.73987 -2.529352,-3.52558 0.66599,-5.70248 7.960761,-5.42343 19.4327,-14.9154 20.982739,-18.03976 2.113756,-4.26062 8.451079,-33.80785 19.01197,-88.641696 z"
             inkscape:connector-curvature="0"
             style="fill:#b28b67" />
          <path
             transform="rotate(5,189.79385,68.74207)"
             id="Clothes-Back"
             d="m 132.86505,10.471785 9.18124,-2.4037272 c 19.19354,50.2810202 97.70512,78.8303172 104.02254,97.7016622 2.31676,6.92062 -2.49128,10.94216 0.34221,12.86396 l -11.34357,9.87099 c -2.25953,-2.19862 -6.25678,2.53449 -15.66531,0.29144 -9.40853,-2.24304 -81.19523,-57.266373 -86.53711,-118.324325 z"
             inkscape:connector-curvature="0"
             style="fill:#db2721" />
          <path
             id="Clothes-Front"
             d="m 153.89871,12.573969 c -1.09461,68.562455 38.79473,86.044738 29.91171,113.541341 -7.33403,22.70188 -77.53284,47.1063 -89.680309,24.8531 -4.917141,-9.00781 -7.148067,-19.90212 -7.401194,-31.74659 -3.104639,9.09967 -5.560064,16.93339 -7.366276,23.50118 -3.11597,11.33035 -15.195919,13.13136 -15.195919,17.49622 L 48.25156,155.85436 c 1.079488,-5.92984 -6.423304,-8.81732 -4.41161,-22.0651 C 52.853572,74.431096 77.071632,31.404319 116.49413,4.7089286 l 0.41995,-5.9222995 c 0.16165,-2.2967546 2.15352,-4.028258 4.45042,-3.868678 l 2.6e-4,-0.00375 29.45335,2.0425498 c 2.29836,0.1596816 4.0321,2.15231869 3.87242,4.4506795 -8e-5,0.00125 -1.7e-4,0.0025 -2.6e-4,0.00374 z"
             inkscape:connector-curvature="0"
             style="fill:#ff4133" />
        </g>
      </g>
    </g>
    <g
       id="humaaans/standing-8"
       style="fill:none;fill-rule:evenodd;stroke:none;stroke-width:1"
       transform="translate(68.132816,206.46814)">
      <g
         transform="translate(40,27)"
         id="A-Human/Standing">
        <g
           transform="translate(82)"
           id="Head/Front/Long">
          <path
             id="Hair-Back"
             d="m 95.762012,45.290167 c 3.447021,12.70215 7.939108,41.253613 3.355257,45.732299 h -29 c -0.003,-0.05145 -0.0059,-0.102775 -0.0087,-0.153967 C 59.359906,89.678999 51,80.56578 51,69.5 v -21 C 51,36.625878 60.625878,27 72.5,27 h 2 c 10.783298,0 19.71245,7.938538 21.262012,18.290167 z"
             inkscape:connector-curvature="0"
             style="fill:#191847" />
          <g
             transform="translate(54,31)"
             id="Head-22"
             style="fill:#d4a181;stroke-width:1">
            <path
               id="path52688"
               d="M 8.2622739,34.490127 C 3.6543643,29.081376 0.53563479,22.452877 1.0567763,15.025454 2.5583302,-6.3750206 32.348531,-1.6671889 38.143341,9.1339329 43.938152,19.935055 43.249578,47.332996 35.760301,49.263458 32.773588,50.033323 26.411001,48.147461 19.935372,44.244306 L 24,73 H 0 Z"
               inkscape:connector-curvature="0" />
          </g>
          <path
             id="Hair-Front"
             d="m 68.749965,61.874834 c 1.105777,11.878006 0.662769,25.442431 -2.632696,28.662293 h -29 c -1.615794,-28.073642 14,-17.202271 14,-43.634334 0.973584,-0.951249 1.893542,-1.892768 2.803849,-2.704734 L 53.888877,43.4207 C 58.910551,33.140233 65.281398,28 73.001418,28 84.581449,28 88.236585,33.388322 91.348681,37.963086 89.021523,45.948175 79.99043,47.132187 71.965741,52.109512 71.019854,51.341004 69.813715,50.880413 68.5,50.880413 c -3.037566,0 -5.5,2.462434 -5.5,5.5 0,3.037566 2.462434,5.5 5.5,5.5 0.08377,0 0.167107,-0.0019 0.249965,-0.0056 z"
             inkscape:connector-curvature="0"
             style="fill:#191847" />
        </g>
        <g
           transform="translate(0,187)"
           id="Bottom/Standing/Skirt">
          <path
             id="Skirt-Shadow"
             d="m 97.407825,98.088074 c 23.989345,6.709846 44.686635,10.064776 62.091855,10.064776 17.40522,0 33.57199,-5.16653 48.50032,-15.499576 -23.47576,-6.887051 -42.80909,-10.330576 -58,-10.330576 -15.19091,0 -32.72163,5.255125 -52.592175,15.765376 z"
             inkscape:connector-curvature="0"
             style="fill:#1f28cf" />
          <path
             id="Leg-6"
             d="m 180.26683,117.82433 c -0.23131,-0.34774 -0.42666,-0.72602 -0.5816,-1.13578 C 176.47864,108.20849 125.11688,16.725534 120,0 h 57.82609 c 3.89044,12.716659 21.40093,92.51976 23.86523,108.44165 7.77533,25.11507 23.78395,106.45359 25.82758,112.08848 2.14987,5.9278 -9.94672,12.10304 -13.17017,4.81554 -5.12906,-11.59564 -17.35008,-43.68057 -22.7916,-63.2714 -5.1014,-18.36637 -9.25531,-34.88977 -11.2903,-44.24994 z"
             inkscape:connector-curvature="0"
             style="fill:#ba8b72" />
          <path
             id="path52695"
             d="m 132.95706,128.99359 c -23.48175,5.93488 -109.373031,16.66409 -115.267267,18.34694 -6.06333,1.73113 -11.3797107,-10.76675 -3.885107,-13.474 11.925179,-4.3077 44.784446,-14.26082 64.707138,-18.32249 16.024608,-3.26696 30.647256,-5.9328 40.464516,-7.49388 C 118.14465,80.47344 114.34276,14.293546 116.83469,0 H 168 c -2.3896,13.706549 -22.58989,113.71771 -26.3444,123.72855 -1.1915,3.57393 -4.74668,5.15335 -8.69854,5.26504 z"
             inkscape:connector-curvature="0"
             style="fill:#d4a181" />
          <g
             transform="rotate(80,-54.135121,84.924739)"
             id="Accessories/Shoe/Flat-Sneaker-1"
             style="fill:#e4e4e4">
            <path
               id="shoe-0"
               d="M 2.6781318,25.401924 C 1.5593773,28.388411 1,30.622993 1,32.105671 1,33.908957 1.3004142,36.5404 1.9012426,40 c 2.0919386,0 20.8925424,0 56.4018124,0 1.465683,-4.845493 0.619606,-7.461418 -2.538232,-7.847777 -3.157838,-0.386358 -5.781107,-0.735209 -7.869809,-1.046552 L 21.679993,19.418883 c -0.50443,-0.224877 -1.095649,0.0017 -1.320526,0.506174 -0.0038,0.0086 -0.0076,0.01731 -0.01117,0.02605 l -1.685082,4.08759 c -2.923332,1.363957 -5.298842,2.045936 -7.126532,2.045936 -1.484954,0 -3.5356885,-0.599726 -6.1522031,-1.799176 l 5.5e-6,-1.2e-5 c -1.0041007,-0.460295 -2.1912281,-0.01945 -2.6515233,0.984647 -0.019839,0.04328 -0.038127,0.08725 -0.054828,0.131834 z"
               inkscape:connector-curvature="0" />
          </g>
          <g
             transform="translate(208,199)"
             id="g52701"
             style="fill:#e4e4e4">
            <path
               id="path52699"
               d="M 2.6781318,25.401924 C 1.5593773,28.388411 1,30.622993 1,32.105671 1,33.908957 1.3004142,36.5404 1.9012426,40 c 2.0919386,0 20.8925424,0 56.4018124,0 1.465683,-4.845493 0.619606,-7.461418 -2.538232,-7.847777 -3.157838,-0.386358 -5.781107,-0.735209 -7.869809,-1.046552 L 21.679993,19.418883 c -0.50443,-0.224877 -1.095649,0.0017 -1.320526,0.506174 -0.0038,0.0086 -0.0076,0.01731 -0.01117,0.02605 l -1.685082,4.08759 c -2.923332,1.363957 -5.298842,2.045936 -7.126532,2.045936 -1.484954,0 -3.5356885,-0.599726 -6.1522031,-1.799176 l 5.5e-6,-1.2e-5 c -1.0041007,-0.460295 -2.1912281,-0.01945 -2.6515233,0.984647 -0.019839,0.04328 -0.038127,0.08725 -0.054828,0.131834 z"
               inkscape:connector-curvature="0" />
          </g>
          <path
             id="Skirt"
             d="m 117,0 c 22.54684,-6.4507391 43.88017,-6.4507391 64,0 7,31.937468 24.00894,44.613474 27,93.578926 C 174,110.47272 132,81.530457 97,98.005311 87,74.961107 101,19.464518 117,0 Z"
             inkscape:connector-curvature="0"
             style="fill:#2b44ff" />
        </g>
        <g
           transform="translate(22,82)"
           id="Body/Long-Sleeve">
          <path
             id="Skin-61"
             d="m 192,65.31079 39.48288,-5.385625 c 7.89817,-4.393139 15.16411,-7.367216 21.79781,-8.922234 1.8668,-0.0545 4.83651,0.624123 0.41246,4.312266 -4.42404,3.688143 -8.91285,7.768 -8.12462,9.736297 0.78823,1.968298 4.90253,1.235959 5.58411,4.263369 0.45438,2.018272 -6.22288,2.346221 -20.0318,0.983847 L 199.08387,83 Z m -124.030208,9.138893 21.897392,0.08218 C 65.856099,128.56567 53.336347,156.85691 52.307928,159.4056 c -2.313943,5.73453 2.582672,14.46813 4.676659,19.1615 -6.820046,3.05177 -6.093363,-8.25017 -14.696668,-4.24761 -7.852698,3.65336 -13.826226,10.27299 -22.898884,4.67488 -1.11543,-0.68825 -2.337759,-3.27966 0.615543,-5.3047 7.357754,-5.04512 17.960724,-13.875 19.393352,-16.78142 1.953644,-3.96342 11.477598,-31.44961 28.571862,-82.458567 z"
             inkscape:connector-curvature="0"
             style="fill:#d4a181" />
          <path
             transform="rotate(5,179.18346,58.59147)"
             id="Clothes-Back-5"
             d="m 123.47357,9.6692732 17.17924,-0.3564661 c 7.53584,37.6878339 32.55094,59.7208839 83.13765,47.0951389 l 11.10289,48.411184 C 187.48907,115.21041 143.7605,99.693528 130.59578,48.474648 127.18785,35.215699 124.20138,21.368178 123.47357,9.6692732 Z"
             inkscape:connector-curvature="0"
             style="fill:#afb9c5" />
          <path
             id="Clothes-9"
             d="M 119.49082,0.01593955 145.4676,5.9652766 C 145.4676,50.644425 159.70002,79.150459 167,112 H 96.843654 c -0.988275,11.3509 -1.595165,23.01756 -1.911414,35 H 42.401636 C 54.305365,83.663963 79.430111,34.663963 117.77587,0 h 1.70128 z"
             inkscape:connector-curvature="0"
             style="fill:#c5cfd6" />
          <path
             id="Shade-4"
             d="m 107.91245,48.259249 c -1.80799,27.84128 -0.74466,49.088197 3.19,63.740751 H 96.843654 C 98.801423,89.513902 102.25588,68.266989 107.91245,48.25926 Z"
             inkscape:connector-curvature="0"
             style="fill:#000000;fill-opacity:0.1" />
        </g>
      </g>
    </g>
  </g>
</svg>
